<?xml version="1.0" standalone="no"?>
<!DOCTYPE svg PUBLIC "-//W3C//DTD SVG 20010904//EN"
 "http://www.w3.org/TR/2001/REC-SVG-20010904/DTD/svg10.dtd">
<svg version="1.0" xmlns="http://www.w3.org/2000/svg"
 width="2979.000000pt" height="2979.000000pt" viewBox="0 0 2979.000000 2979.000000"
 preserveAspectRatio="xMidYMid meet">
<metadata>
Created by potrace 1.14, written by Peter Selinger 2001-2017
</metadata>
<g transform="translate(0.000000,2979.000000) scale(0.100000,-0.100000)"
fill="#000000" stroke="none">
<path d="M8258 22045 c-2 -1 -48 -5 -103 -8 -134 -8 -226 -16 -250 -21 -11 -3
-46 -8 -78 -11 -32 -4 -68 -8 -80 -11 -12 -2 -38 -7 -57 -10 -19 -3 -42 -7
-50 -9 -8 -2 -31 -7 -50 -10 -63 -10 -223 -47 -335 -77 -60 -16 -117 -31 -125
-33 -8 -2 -46 -14 -85 -26 -38 -12 -74 -23 -80 -24 -13 -3 -105 -34 -125 -42
-8 -3 -19 -7 -25 -9 -5 -1 -48 -16 -95 -34 -47 -17 -105 -38 -130 -47 -25 -8
-49 -19 -55 -23 -5 -4 -28 -13 -50 -20 -22 -7 -51 -18 -65 -25 -35 -18 -97
-45 -103 -45 -20 0 -507 -239 -664 -326 -64 -35 -118 -64 -119 -64 -4 0 -347
-204 -394 -234 -107 -69 -486 -322 -550 -367 -162 -114 -577 -428 -626 -474
-6 -5 -28 -23 -50 -40 -41 -33 -296 -246 -304 -254 -3 -4 -39 -35 -80 -71 -41
-36 -80 -69 -86 -75 -6 -5 -53 -48 -104 -95 -332 -303 -674 -651 -936 -950
-21 -25 -43 -50 -49 -56 -5 -6 -30 -35 -55 -64 -25 -30 -60 -71 -79 -92 -28
-32 -31 -38 -15 -39 11 -1 28 -3 39 -4 19 -2 150 -14 225 -20 19 -2 82 -6 140
-10 58 -3 125 -8 150 -11 45 -4 198 -11 440 -19 151 -6 836 -6 975 0 329 13
644 32 828 50 23 2 69 7 102 10 33 3 80 8 105 11 25 2 65 7 89 9 24 3 60 7 80
9 20 3 61 8 91 11 30 3 66 8 80 10 14 2 45 7 70 10 25 3 56 8 70 10 14 3 45 7
70 10 25 3 83 12 130 20 47 8 102 17 124 21 21 3 46 7 55 9 22 4 190 36 221
42 20 3 169 35 320 68 17 3 297 74 320 80 8 2 47 13 85 24 121 33 235 68 375
115 126 41 172 58 378 135 83 31 262 107 382 163 41 19 82 38 90 42 61 26 309
162 428 235 51 31 100 61 110 66 32 20 157 103 189 127 17 13 41 30 53 38 12
8 28 20 34 25 6 6 40 32 76 59 170 130 412 356 540 505 30 35 60 69 65 75 6 6
33 40 60 76 27 36 52 67 55 70 9 9 80 113 158 232 79 122 194 345 262 513 32
79 80 213 80 223 0 4 -17 18 -38 32 -20 14 -66 45 -102 71 -211 150 -531 307
-795 392 -91 29 -313 85 -365 93 -19 2 -57 9 -85 15 -27 5 -68 12 -90 14 -127
13 -163 17 -192 21 -34 5 -420 13 -425 9z"/>
<path d="M13058 22046 c-1 -2 -52 -7 -113 -10 -60 -4 -123 -8 -140 -10 -16 -2
-64 -7 -105 -10 -78 -8 -82 -8 -190 -25 -36 -6 -83 -13 -105 -16 -22 -4 -47
-8 -55 -10 -8 -2 -35 -7 -60 -10 -185 -26 -569 -132 -840 -231 -178 -66 -479
-196 -540 -234 -8 -5 -50 -27 -93 -50 -44 -22 -109 -58 -147 -80 l-68 -40 -35
-102 c-77 -225 -147 -383 -247 -563 -18 -33 -38 -69 -44 -80 -59 -109 -223
-335 -371 -511 -78 -93 -340 -351 -450 -443 -424 -354 -879 -626 -1485 -888
-254 -111 -687 -269 -915 -334 -133 -39 -310 -89 -325 -93 -8 -3 -71 -19 -140
-36 -69 -18 -130 -37 -136 -43 -27 -28 -195 -523 -299 -883 -107 -368 -240
-924 -291 -1214 -3 -14 -20 -108 -39 -210 -18 -102 -37 -205 -40 -230 -3 -25
-8 -52 -10 -60 -2 -8 -6 -35 -9 -60 -3 -25 -8 -58 -11 -75 -8 -49 -14 -87 -20
-130 -3 -22 -8 -56 -11 -75 -3 -19 -7 -51 -9 -70 -3 -19 -8 -55 -11 -80 -4
-25 -8 -56 -9 -70 -1 -14 -7 -68 -14 -120 -6 -52 -13 -108 -15 -125 -4 -33
-14 -124 -21 -195 -3 -25 -7 -65 -9 -90 -6 -48 -13 -128 -21 -225 -3 -33 -7
-89 -10 -125 -3 -36 -8 -96 -10 -135 -3 -38 -7 -104 -10 -145 -3 -41 -7 -120
-10 -175 -2 -55 -8 -161 -12 -235 -9 -175 -10 -1206 -1 -1215 7 -8 321 202
573 384 152 109 467 344 492 366 6 5 26 21 44 35 34 26 143 111 169 133 8 7
60 48 115 92 55 44 113 92 130 106 16 15 94 81 173 147 79 67 171 146 205 176
34 30 72 63 85 74 20 18 99 89 251 227 94 86 222 207 298 284 41 40 75 72 77
70 2 -2 11 -38 21 -79 34 -137 116 -455 125 -485 6 -16 32 -102 59 -190 73
-234 196 -586 227 -647 8 -15 15 -31 15 -35 2 -12 16 -48 71 -178 50 -119 62
-148 141 -320 53 -117 222 -452 291 -580 30 -55 66 -122 81 -148 29 -54 195
-333 230 -387 113 -175 286 -436 319 -480 22 -30 58 -80 80 -110 65 -90 105
-144 113 -155 5 -5 39 -50 77 -100 62 -80 254 -318 306 -378 10 -12 28 -33 39
-46 30 -34 147 -165 216 -241 95 -104 512 -518 610 -606 96 -86 151 -135 200
-176 17 -14 53 -45 81 -69 95 -82 352 -286 414 -329 12 -8 54 -39 93 -68 70
-52 263 -187 296 -207 9 -5 18 -12 21 -16 6 -7 318 -200 430 -266 284 -169
684 -368 989 -494 471 -195 980 -350 1421 -434 14 -3 59 -11 100 -19 41 -9 93
-18 115 -21 22 -3 51 -8 65 -10 27 -4 251 -33 315 -40 311 -35 840 -39 1134
-10 204 21 230 24 341 41 128 20 140 22 255 45 55 10 109 21 121 23 11 2 65
16 120 30 54 15 108 28 119 31 25 5 125 35 235 70 336 108 713 279 1030 468
112 67 354 228 358 239 2 4 10 8 17 8 7 0 15 4 17 8 2 5 30 28 62 52 33 24 69
51 80 61 12 9 66 55 121 101 126 105 180 155 324 299 118 117 199 205 299 324
96 114 288 369 313 416 6 13 15 26 18 29 13 11 51 70 51 80 0 5 5 10 10 10 6
0 10 4 10 9 0 5 18 37 40 70 22 33 40 62 40 65 0 3 14 28 30 55 207 335 445
903 578 1376 76 270 143 587 182 860 6 44 13 90 15 103 2 13 7 53 10 90 4 37
8 78 11 92 2 14 6 61 10 105 3 44 8 96 10 115 9 87 18 374 18 575 -1 278 -9
475 -30 700 -3 33 -7 83 -10 110 -5 60 -32 282 -38 310 -2 11 -7 43 -10 70
-34 251 -106 610 -182 905 -48 188 -89 329 -141 495 -50 159 -56 175 -113 335
-58 163 -125 340 -146 385 -7 17 -32 75 -55 130 -22 55 -53 127 -68 160 -15
33 -41 89 -57 125 -37 83 -230 470 -287 575 -292 540 -636 1056 -1041 1560
-105 131 -138 171 -181 219 -5 6 -37 43 -70 81 -209 244 -581 621 -844 855
-46 41 -96 86 -110 99 -14 13 -46 40 -71 60 -25 20 -47 38 -50 41 -3 3 -30 25
-60 50 -30 25 -57 47 -60 50 -11 13 -282 220 -375 287 -55 40 -105 76 -111 82
-62 53 -756 491 -779 491 -2 0 -28 14 -57 32 -82 49 -467 239 -623 308 -143
64 -398 168 -425 175 -8 2 -46 16 -85 30 -60 23 -226 79 -385 130 -90 29 -321
91 -410 111 -161 36 -206 46 -225 50 -11 2 -31 6 -45 9 -131 28 -430 74 -580
89 -141 14 -171 17 -235 22 -78 6 -691 14 -697 10z"/>
</g>
</svg>
