<svg width="90" height="90" viewBox="0 0 90 90" fill="none" xmlns="http://www.w3.org/2000/svg">
<mask id="mask0_308_15" style="mask-type:alpha" maskUnits="userSpaceOnUse" x="-200" y="-79" width="346" height="215">
<mask id="path-1-outside-1_308_15" maskUnits="userSpaceOnUse" x="-239.198" y="-117.858" width="423.643" height="332.418" fill="black">
<rect fill="white" x="-239.198" y="-117.858" width="423.643" height="332.418"/>
<path d="M7.14697 35.0347C16.016 35.8456 34.3064 34.5959 36.3014 23.4942C27.2586 16.7333 13.0794 28.4028 7.14697 35.0347Z"/>
</mask>
<path d="M7.14697 35.0347C16.016 35.8456 34.3064 34.5959 36.3014 23.4942C27.2586 16.7333 13.0794 28.4028 7.14697 35.0347Z" stroke="black" stroke-width="200" mask="url(#path-1-outside-1_308_15)"/>
</mask>
<g mask="url(#mask0_308_15)">
<ellipse cx="24.1475" cy="18.9895" rx="24.1475" ry="18.9895" transform="matrix(0.55979 0.828569 -0.829506 0.558596 51.0957 14.4636)" fill="#FFC800"/>
</g>
<mask id="mask1_308_15" style="mask-type:alpha" maskUnits="userSpaceOnUse" x="-51" y="-7" width="118" height="71">
<mask id="path-3-outside-2_308_15" maskUnits="userSpaceOnUse" x="-63.8684" y="-20.1418" width="143.714" height="109.169" fill="black">
<rect fill="white" x="-63.8684" y="-20.1418" width="143.714" height="109.169"/>
<path d="M7.14694 35.0347C16.016 35.8456 34.3064 34.5959 36.3013 23.4942C27.2586 16.7332 13.0794 28.4028 7.14694 35.0347Z"/>
</mask>
<path d="M7.14694 35.0347C16.016 35.8456 34.3064 34.5959 36.3013 23.4942C27.2586 16.7332 13.0794 28.4028 7.14694 35.0347Z" stroke="black" stroke-width="56" mask="url(#path-3-outside-2_308_15)"/>
</mask>
<g mask="url(#mask1_308_15)">
<path d="M20.7969 51.9203C28.5637 46.885 42.3332 34.1093 35.4003 23.7412C22.9169 24.0183 20.4735 42.6805 20.7969 51.9203Z" fill="#99CC00"/>
</g>
<path d="M10.6215 33.5611C18.1621 34.3176 32.2786 33.52 35.2815 24.3925C27.3884 18.3571 15.4177 27.7029 10.6215 33.5611Z" fill="#729900"/>
</svg>
