<svg width="90" height="90" viewBox="0 0 90 90" fill="none" xmlns="http://www.w3.org/2000/svg">
<mask id="mask0_308_15" style="mask-type:alpha" maskUnits="userSpaceOnUse" x="-871" y="-403" width="1372" height="863">
<path d="M-151.03 -106.252L-431.853 207.679L-12.0213 246.066C9.10499 247.997 42.5362 248.348 79.6922 238.332C104.764 231.573 221.117 194.288 245.051 61.0971L268.196 -67.7024L163.284 -146.141C53.9898 -227.857 -57.2116 -174.619 -79.7532 -162.546C-113.587 -144.424 -137.463 -121.419 -151.03 -106.252ZM26.3152 -175.996L8.64767 18.5129L-16.4015 14.0007L-172.448 -14.1086C-166.678 -46.2198 -153.99 -73.2141 -138.468 -95.0321C-126.238 -112.224 -112.248 -126.201 -98.4954 -136.936C-70.6429 -158.678 -44.1766 -167.34 -31.0883 -170.868C-5.79351 -177.687 14.058 -177.117 26.3152 -175.996ZM19.4419 46.0168L165.324 176.322C157.689 184.856 143.869 198.711 120.869 211.03C109.002 217.386 83.694 229.295 48.2975 232.54C30.6367 234.158 10.5301 233.505 -10.489 229.196C-36.7923 223.804 -64.5247 212.686 -90.6815 193.13L4.31379 66.2262L19.4419 46.0168Z" stroke="black" stroke-width="424"/>
</mask>
<g mask="url(#mask0_308_15)">
<ellipse cx="24.1475" cy="18.9895" rx="24.1475" ry="18.9895" transform="matrix(0.55979 0.828569 -0.829506 0.558596 51.0957 14.4636)" fill="#FFC800"/>
</g>
<mask id="mask1_308_15" style="mask-type:alpha" maskUnits="userSpaceOnUse" x="-51" y="-7" width="118" height="71">
<path d="M-3.29869 25.7044L-21.8436 46.4357L5.88112 48.9707C11.4179 49.4769 19.9671 49.3977 27.9598 47.243C35.1545 45.3035 47.5746 39.9573 50.0867 25.9774L51.6151 17.4718L44.687 12.2919C33.2467 3.73828 20.4811 8.40013 13.9335 11.9071C6.64018 15.8135 0.367583 21.6059 -3.29869 25.7044Z" stroke="black" stroke-width="28"/>
</mask>
<g mask="url(#mask1_308_15)">
<path d="M20.7969 51.9203C28.5637 46.885 42.3332 34.1093 35.4004 23.7412C22.9169 24.0183 20.4735 42.6805 20.7969 51.9203Z" fill="#99CC00"/>
</g>
<path d="M10.6215 33.5611C18.1621 34.3176 32.2786 33.52 35.2815 24.3925C27.3884 18.3571 15.4177 27.7029 10.6215 33.5611Z" fill="#729900"/>
</svg>
